<svg id="Livello_2" data-name="Livello 2" xmlns="http://www.w3.org/2000/svg" viewBox="0 0 566.81 568.85"><defs><style>.cls-1{fill:#725d8a;}.cls-2{fill:#f68e3c;}.cls-3{font-size:93.53px;fill:#fff;font-family:MorningBright, Morning Bright;}</style></defs><rect class="cls-1" width="566.81" height="568.85"/><path class="cls-2" d="M308.35,264.75c-19.66,0-39.31,0-59-.06-2.45,0-3.22.48-2.26,2.88.48,1.21.65,2.54,1.07,3.78,1.4,4.16,3.49,5.65,7.84,5.65l103.53,0a13.84,13.84,0,0,1,4.75.41,8,8,0,0,1,5.37,8.88,8.43,8.43,0,0,1-7.64,7.13c-1.12.1-2.25,0-3.38,0H250.89c-9.38,0-15-4.42-17.33-13.59q-9.51-36.81-19.1-73.58c-3.31-12.61-6.2-25.33-10-37.8a9.19,9.19,0,0,1-.2-1.67c-.19-1.85-1-2.68-3.08-2.63-6.58.14-13.17.06-19.75,0-4.88,0-8.34-3-8.64-7.43a8.06,8.06,0,0,1,7.7-8.46,249.69,249.69,0,0,1,27.9-.06c5.57.29,9.38,4.12,11,10.17,1.73,6.43,3.46,12.86,5,19.33.43,1.8,1.15,2.43,3,2.38,4.89-.13,9.79.07,14.67-.1,2.14-.07,2.77.76,3.36,2.69,6.91,22.29,21.67,36.86,44.59,41.06,28.41,5.21,54.45-11.48,63.66-37,.23-.61.44-1.24.65-1.86,1.59-4.79,1.59-4.79,6.53-4.8,8,0,16,0,24,0,7.22,0,10.67,5.4,8.79,12.41-2.71,10.15-4.84,20.46-7.19,30.7-2.3,10.06-4.64,20.12-6.82,30.21-1.46,6.73-5.69,11.54-14.32,11.39C346.34,264.52,327.34,264.74,308.35,264.75Z" transform="translate(-0.06 0.96)"/><path class="cls-2" d="M348.77,168.8c-.08,27.87-23.6,48-49.1,48-27.74,0-48.48-24.42-48.13-48.17.35-23.51,18.4-49.61,50-49.08C327.85,120.05,348.84,141.56,348.77,168.8Zm-48.84,32.68c2.71.15,4.48-1.38,4.22-4.32s.8-3.91,3.52-4.74c8.44-2.56,12.18-11.35,8.62-19.44a11.67,11.67,0,0,0-7.44-6.43c-4.36-1.46-8.8-2.66-13.15-4.16-2.28-.78-4.4-2.17-4.36-4.93s2-4.33,4.41-5.29c5.38-2.14,9.75-.83,13,3.84a8,8,0,0,0,1.06,1.31c1.53,1.38,3.29,1.92,5.15.78s2-3.14,1.14-5c-1.78-3.75-4.25-7-8.45-8.15-2.75-.71-3.78-1.87-3.57-4.77.2-2.74-1.92-4.23-4.64-3.8-2.88.45-3.5,2.44-3.37,5,.07,1.42.19,2.58-1.81,3.12-6.88,1.85-10.81,6.79-10.94,13.26-.13,6.06,3.35,10.44,10.29,12.81,4,1.36,8.05,2.53,12,3.91,2.25.78,4,2.2,4,4.86,0,2.82-1.57,4.57-4,5.59-4.51,1.92-11.8,1.81-14.7-4.26a4.63,4.63,0,0,0-.83-1.14c-1.46-1.48-3.21-2.1-5.08-1a3.58,3.58,0,0,0-1.46,4.89c1.84,4.33,4.52,8,9.32,9.05,2.67.62,3.41,1.83,3.23,4.43C296,199.87,297.41,201.34,299.93,201.48Z" transform="translate(-0.06 0.96)"/><path class="cls-2" d="M325,321.35A19.27,19.27,0,0,1,344.54,302c10.17.09,18.9,9.3,18.75,19.78a19.51,19.51,0,0,1-19.46,19A19.21,19.21,0,0,1,325,321.35Z" transform="translate(-0.06 0.96)"/><path class="cls-2" d="M237.53,321.42c-.16-9.81,8-19.37,18.91-19.42a19.25,19.25,0,0,1,19.07,19.62c-.09,10.47-9.26,19.93-19.24,19.83C246.5,341.36,237.52,331.77,237.53,321.42Z" transform="translate(-0.06 0.96)"/><text class="cls-3" transform="translate(102.1 429.78)">ShopyTime</text></svg>